<svg xmlns="http://www.w3.org/2000/svg" role="img" viewBox="0 0 79 80" width="100" class="inline-block" style="fill:rgb(0, 0, 0);stroke:none;color:rgb(35, 95, 115);opacity:1;display:inline-block;visibility:visible"><title style="fill:rgb(0, 0, 0);stroke:none;color:rgb(35, 95, 115);opacity:1;display:inline;visibility:visible">ICE Logo</title><g stroke="none" stroke-width="1" fill="none" fill-rule="evenodd" style="fill:none;stroke:none;color:rgb(35, 95, 115);opacity:1;display:inline;visibility:visible"><g transform="translate(-60.000000, -79.000000)" style="fill:none;stroke:none;color:rgb(35, 95, 115);opacity:1;display:inline;visibility:visible"><g transform="translate(60.000000, 79.000000)" style="fill:none;stroke:none;color:rgb(35, 95, 115);opacity:1;display:inline;visibility:visible"><polygon class="text-ice-blue fill-current" points="0 0 0 79 15.3877027 79 15.3877027 71.781459 7.2168718 71.781459 7.2168718 7.2168718 71.781459 7.2168718 71.781459 47.0749194 79 47.0749194 79 0" style="fill:rgb(113, 197, 232);stroke:none;color:rgb(113, 197, 232);opacity:1;display:inline;visibility:visible"/><polygon class="text-black fill-current" points="23 79 28 79 28 55 23 55" style="fill:rgb(0, 0, 0);stroke:none;color:rgb(0, 0, 0);opacity:1;display:inline;visibility:visible"/><g transform="translate(32.000000, 55.000000)" style="fill:none;stroke:none;color:rgb(35, 95, 115);opacity:1;display:inline;visibility:visible"><path d="M12.4628433,20.5567292 C8.16176588,20.5567292 5.08320506,17.2362315 5.08320506,12.4997921 C5.08320506,7.76335268 7.86914443,4.39461734 12.3650254,4.39461734 C15.0044459,4.39461734 17.2038936,5.6641827 18.6703308,7.71511502 L21.994061,4.44327085 C19.4033413,1.41594172 16.1287283,0 12.2676236,0 C5.32754189,0 0,5.4200835 0,12.4997921 C0,19.5799165 4.88715285,25 12.4628433,25 C16.5687011,25 19.8433141,23.2422362 22.1892807,20.1658378 L18.7190317,17.2362315 C17.2038936,19.3358173 15.1022639,20.5567292 12.4628433,20.5567292" class="text-black fill-current" style="fill:rgb(0, 0, 0);stroke:none;color:rgb(0, 0, 0);opacity:1;display:inline;visibility:visible"/><g transform="translate(23.948922, 0.000083)" style="fill:none;stroke:none;color:rgb(35, 95, 115);opacity:1;display:inline;visibility:visible"><path d="M5.29965336,14.5993779 C6.07012606,18.1885095 8.83109062,20.5567292 12.4628433,20.5567292 C15.1022639,20.5567292 17.2038936,19.3358173 18.7190317,17.2362315 L22.1892807,20.1658378 C19.8433141,23.2418204 16.5691173,24.9995842 12.4628433,24.9995842 C4.8875691,24.9995842 0,19.5795007 0,12.4997921 C0,5.41966766 4.84885816,0 11.7889399,0 C16.988694,0 24.0994369,3.61824049 22.9218749,14.5993779 L5.29965336,14.5993779 Z M18.2082969,10.7420283 C17.6767499,5.86461851 14.5178534,4.3942015 12.3658578,4.3942015 C8.7124603,4.3942015 6.06762858,6.68549044 5.21973399,10.7420283 L18.2082969,10.7420283 Z" class="text-black fill-current" style="fill:rgb(0, 0, 0);stroke:none;color:rgb(0, 0, 0);opacity:1;display:inline;visibility:visible"/></g></g></g></g></g></svg>