<svg width="194" height="68" viewBox="0 0 194 68" fill="none" xmlns="http://www.w3.org/2000/svg"><path d="M17.562 20.548a12.307 12.307 0 0 0-7.8 2.773l.845.863c1.98-1.567 4.467-2.36 6.955-2.36 5.553 0 9.458 3.214 20.264 11.023 3.792 2.743 6.94 5.118 9.72 7.06v-1.597c-1.97-1.402-4.234-3.066-6.932-5.015C29.77 25.457 24.15 20.548 17.562 20.548z" fill="#003936"/><path d="M30.887 2h-6.625v31.153c0 6.685-2.51 10.964-6.707 10.964-5.973 0-10.927-3.987-10.927-11.046 0-3.364 1.124-5.98 2.848-7.846l-.847-.86a12.526 12.526 0 0 0-3.493 8.707c0 7.203 5.575 12.523 12.418 12.523 6.842 0 13.332-4.106 13.332-13.85V2zM60.87 44.32c-2.315 0-4.346-.563-6.707-1.777V32.98c0-6.684 2.51-10.963 6.708-10.963 4.197 0 5.8 3.987 5.8 11.046 0 7.45-1.805 11.256-5.8 11.256zm0-23.772c-6.85 0-13.33 4.107-13.33 13.85V47.63c0 7.9 5.5 7.412 5.5 10.192 0 2.78-3.193 7.097-8.004 7.097-1.882 0-2.504-1.55-2.504-3.462V2h-6.624v55.66c0 4.608 4.586 8.34 9.128 8.34 4.54 0 9.127-3.74 9.127-8.34V43.92c2.294 1.08 4.444 1.664 6.708 1.664 6.85 0 12.42-5.568 12.42-12.523-.002-6.954-5.57-12.523-12.42-12.523M86.178 36.188c.832 0 1.484.203 1.95.607.463.405.696.967.696 1.694 0 .8-.255 1.385-.765 1.753-.51.367-1.2.547-2.07.547h-1.116v3.522h-1.17v-8.124h2.482-.008zm-1.31 3.575h1.07c.555 0 .975-.097 1.26-.285.284-.187.42-.524.42-1.01 0-.49-.143-.788-.428-.976-.285-.187-.704-.277-1.25-.277h-1.073v2.548zM96.026 36.136l3.634 8.168h-1.19l-1.088-2.39h-3.455l-1.026 2.39h-1.19l3.49-8.168h.826zm-1.656 4.73h2.563l-1.32-3.15-1.236 3.15h-.007zM106.045 36.188c.742 0 1.342.218 1.79.645.45.427.676.967.676 1.62 0 .478-.11.883-.336 1.22-.225.337-.562.6-1.02.78.255.164.458.33.615.494.156.165.45.562.876 1.2l1.43 2.165H108.7l-1.29-2c-.35-.54-.666-.93-.943-1.17a1.44 1.44 0 0 0-.96-.36h-.524v3.537h-1.168v-8.124h2.24l-.007-.008zm-1.07 3.56h.748c.585 0 .997-.112 1.237-.33.24-.217.36-.547.36-.966 0-.398-.113-.705-.345-.915-.233-.217-.57-.322-1.012-.322h-.99v2.54-.007zM119.752 36.188v1.02h-2.833v7.096h-1.17v-7.096h-2.788v-1.02h6.79zM125.066 36.188l5.44 6.295v-6.295h1.117v8.116h-1.012l-5.395-6.25v6.25H124.1v-8.116h.966zM141.275 36.188v1.034h-3.447v2.474h3.327v1.04h-3.327v2.527h3.552v1.04h-4.714V36.19h4.61zM148.357 36.188c.742 0 1.342.218 1.79.645.45.427.676.967.676 1.62 0 .478-.113.883-.337 1.22-.225.337-.562.6-1.02.78.255.164.458.33.615.494.158.165.45.562.878 1.2l1.43 2.165h-1.378l-1.29-2c-.35-.54-.666-.93-.943-1.17-.277-.24-.6-.36-.96-.36h-.524v3.537h-1.17v-8.124h2.242l-.008-.008zm-1.07 3.56h.748c.585 0 .997-.112 1.237-.33.24-.217.36-.547.36-.966 0-.398-.113-.705-.345-.915-.233-.217-.57-.322-1.012-.322h-.99v2.54-.007zM160.618 36.645v1.32c-.278-.27-.57-.48-.885-.623a2.324 2.324 0 0 0-1.02-.217c-.366 0-.666.09-.876.262a.847.847 0 0 0-.314.682c0 .54.344.996 1.026 1.378.69.375 1.258.765 1.708 1.162.45.397.682.96.682 1.694 0 .614-.217 1.116-.652 1.52-.435.406-1.004.6-1.7.6-.406 0-.788-.067-1.155-.194a3.834 3.834 0 0 1-1.034-.555V42.2c.283.38.613.673.988.883a2.4 2.4 0 0 0 1.2.307c.344 0 .62-.097.853-.3a.966.966 0 0 0 .338-.772c0-.352-.12-.644-.36-.884s-.69-.554-1.348-.937c-.66-.39-1.11-.764-1.35-1.116-.24-.36-.36-.78-.36-1.258 0-.577.226-1.064.683-1.447.457-.382 1.027-.577 1.716-.577.33 0 .66.053.973.15.315.098.615.24.892.42M166.77 36.188v3.508h4.564v-3.508h1.17v8.116h-1.17v-3.537h-4.564v3.537h-1.17v-8.116h1.17zM178.71 36.18h-1.17v8.124h1.17v-8.123zM186.218 36.188c.832 0 1.484.203 1.948.607.465.405.697.967.697 1.694 0 .8-.255 1.385-.764 1.753-.51.367-1.2.547-2.07.547h-1.116v3.522h-1.17v-8.124h2.48-.006zm-1.312 3.575h1.072c.555 0 .974-.097 1.26-.285.284-.187.42-.524.42-1.01 0-.49-.144-.788-.43-.976-.283-.187-.703-.277-1.25-.277h-1.072v2.548zM91.095 22.024v6.947c0 .78-.045 1.65-.608 2.257a1.88 1.88 0 0 1-1.01.555c-.024-.015-1.08-1.08-1.08-1.08.314 0 .644.023.936-.104a.775.775 0 0 0 .443-.427c.105-.202.15-.667.15-1.334v-6.812h1.17zM100.17 23.014c-.93 0-1.694.292-2.293.87-.6.583-.9 1.325-.9 2.225 0 .898.3 1.602.9 2.187.6.577 1.35.87 2.256.87.906 0 1.663-.3 2.27-.893.607-.592.907-1.326.907-2.21 0-.885-.3-1.582-.907-2.174-.607-.584-1.35-.876-2.233-.876zm-.045-1.102c1.252 0 2.3.397 3.133 1.192.83.794 1.25 1.79 1.25 2.982 0 1.192-.42 2.19-1.258 2.975-.84.788-1.903 1.178-3.185 1.178-1.28 0-2.24-.39-3.058-1.177-.816-.785-1.22-1.767-1.22-2.95 0-1.185.41-2.22 1.228-3.014.817-.794 1.86-1.192 3.11-1.192M114.926 22.024h1.162v8.116h-1.162v-3.53h-4.75v3.53h-1.163v-8.116h1.162v3.538h4.75v-3.538zM127.786 22.024h1.102v8.116h-.997l-5.672-6.25v6.25h-1.094v-8.116h.944l5.718 6.303v-6.303zM139.297 22.024v8.116h4.976v-1.05h-3.807v-7.066h-1.17zM148.402 22.024v8.116h5.23v-1.05h-4.068v-2.517h3.844v-1.05h-3.844v-2.45h3.964v-1.05h-5.126zM168.382 22.024l-2.22 5.59-2.254-5.59h-1.11l-2.248 5.59-2.24-5.59h-1.162l3.282 8.19h.225l2.69-6.646 2.67 6.647h.223l3.298-8.19h-1.154zM174.857 22.024h-1.17v8.116h1.17v-8.116zM182 26.746l-.886-.54c-.554-.337-.907-.674-1.154-.99a1.808 1.808 0 0 1-.39-1.153c0-.637.225-1.162.667-1.56.443-.396 1.035-.59 1.747-.59.75 0 1.296.186 1.866.57v1.317c-.585-.562-1.214-.846-1.89-.846-.38 0-.688.09-.936.262a.798.798 0 0 0-.367.682c0 .24.06.442.24.66.18.21.502.464.9.696l.92.525c.99.59 1.455 1.34 1.455 2.255 0 .652-.225 1.184-.66 1.596-.434.406-.996.623-1.693.608a3.6 3.6 0 0 1-2.19-.75v-1.476c.63.795 1.357 1.177 2.18 1.177.36 0 .668-.084.908-.286.24-.202.375-.457.375-.764 0-.495-.368-.96-1.08-1.41" fill="#003936"/></svg>