<svg version="1.1" id="Ebene_1" xmlns="http://www.w3.org/2000/svg" x="0" y="0" viewBox="0 0 566.93 90.71" xml:space="preserve" aria-hidden="true">
  <style>
      .st1 {
          fill: #000
      }
  </style>
    <path class="st1" d="M493.47 87.6h15.55V37.88l57.91 51.88V4.24h-15.57v51.4L493.48 2.09zM427.51 16.35c-15.59 0-28.26 12.68-28.26 28.26s12.68 28.26 28.26 28.26c15.59 0 28.26-12.68 28.26-28.26s-12.67-28.26-28.26-28.26m0 71.93c-24.08 0-43.67-19.59-43.67-43.67 0-24.08 19.59-43.67 43.67-43.67 24.08 0 43.67 19.59 43.67 43.67 0 24.08-19.59 43.67-43.67 43.67M295.01 18.36H326V87.6h15.95V18.36h30.99V4.24h-77.93zM194.54 87.6h18.29l42.39-83.37h-18.29zM256.9 53.25l17.51 34.35h18.65l-26.88-52.63zM178.23 35.17c0-16.86-13.34-30.94-30.3-30.94h-46.55V87.6h15.95V65.54l29.89-.1L158.5 87.6h17.89l-12.83-25.25c8.42-4.49 14.67-14.9 14.67-27.18m-34.06 16.48h-26.84V18.36h26.84c11.73 0 18.23 8.61 18.23 16.7.01 7.06-4.79 16.59-18.23 16.59M0 4.24v14.12h30.99V87.6h15.95V18.36h30.99V4.24z"/>
</svg>